<svg xmlns="http://www.w3.org/2000/svg" viewBox="0 0 512 512" width="100%" height="100%">
  <defs>
    <linearGradient id="gradient" x1="0%" y1="0%" x2="100%" y2="100%">
      <stop offset="0%" stop-color="#22d3ee" />
      <stop offset="100%" stop-color="#2563eb" />
    </linearGradient>
  </defs>
  <rect width="512" height="512" rx="128" fill="url(#gradient)" />
  <g transform="translate(96, 96) scale(13.333)" stroke="#ffffff" stroke-width="1.8" stroke-linecap="round" stroke-linejoin="round" fill="none">
    <path d="M9.348 14.652a3.75 3.75 0 010-5.304m5.304 0a3.75 3.75 0 010 5.304m-7.425 2.121a6.75 6.75 0 010-9.546m9.546 0a6.75 6.75 0 010 9.546M5.106 18.894c-3.808-3.808-3.808-9.98 0-13.788m13.788 0c3.808 3.808 3.808 9.98 0 13.788M12 12h.008v.008H12V12zm.375 0a.375.375 0 11-.75 0 .375.375 0 01.75 0z" />
  </g>
</svg>